<?xml version="1.0" encoding="UTF-8"?>
<svg width="228px" height="221px" viewBox="0 0 228 221" version="1.1" xmlns="http://www.w3.org/2000/svg" xmlns:xlink="http://www.w3.org/1999/xlink">
    <!-- Generator: Sketch 58 (84663) - https://sketch.com -->
    <title>1</title>
    <desc>Created with Sketch.</desc>
    <g id="Page-1" stroke="none" stroke-width="1" fill="none" fill-rule="evenodd">
        <g id="1" transform="translate(-12.000000, -1.000000)">
            <path d="M114.580337,222 C170.35187,222 222,174.101364 222,118.36284 C222,62.6243155 208.88791,24 153.116377,24 C97.3448445,24 16,71.8066481 16,127.545172 C16,183.283697 58.8088048,222 114.580337,222 Z" id="Oval" fill="#F6F8F0" transform="translate(119.000000, 123.000000) rotate(-170.000000) translate(-119.000000, -123.000000) "></path>
            <path d="M191.656725,221.181895 C195.988495,221.181895 200,217.553211 200,213.330595 C200,209.10798 195.810136,206 191.478366,206 C187.146597,206 184,209.803611 184,214.026227 C184,218.248842 187.324956,221.181895 191.656725,221.181895 Z" id="Oval-Copy" fill="#F6F8F0" transform="translate(192.000000, 213.590948) rotate(-280.000000) translate(-192.000000, -213.590948) "></path>
            <path d="M222.35636,214.869954 C230.478428,214.869954 238,208.096409 238,200.214194 C238,192.331978 233.368352,182 225.246284,182 C217.124216,182 208,193.63049 208,201.512705 C208,209.394921 214.234292,214.869954 222.35636,214.869954 Z" id="Oval-Copy-3" fill="#F6F8F0" transform="translate(223.000000, 198.434977) rotate(-145.000000) translate(-223.000000, -198.434977) "></path>
            <path d="M22.5279972,24 C28.4841803,24 34,18.9198417 34,13.00818 C34,7.09651831 32.5996797,3 26.6434966,3 C20.6873135,3 12,8.07040207 12,13.9820637 C12,19.8937254 16.5718141,24 22.5279972,24 Z" id="Oval-Copy-2" fill="#F6F8F0" transform="translate(23.000000, 13.500000) rotate(-280.000000) translate(-23.000000, -13.500000) "></path>
            <g id="002-harvest" transform="translate(58.000000, 1.000000)" fill="#A9C623" fill-rule="nonzero">
                <path d="M178.903246,70.6906954 C178.756996,69.8894866 178.337581,69.163545 177.715667,68.637378 C171.893788,63.7101903 170.910818,58.277235 170.120857,53.9120892 L170.017497,53.3433646 C169.744685,51.8534962 168.548668,50.7054955 167.049605,50.494466 C166.532104,50.4216608 165.98437,50.3843789 165.421518,50.3843789 C162.075695,50.3843789 157.361942,51.7947596 154.373307,54.9450788 C153.863541,55.4828524 153.536236,56.1679949 153.438502,56.9027294 C153.187135,58.7928505 153.057759,60.5225892 152.943853,62.0486844 C152.513189,67.7995908 152.132446,68.4094661 150.381312,68.9637704 C149.283733,69.3112657 148.42592,70.1740247 148.084553,71.2734886 C146.435372,76.5851018 144.246894,81.6680997 141.59822,86.4637458 C140.290056,83.9651561 138.84443,81.7176917 137.498999,79.626389 C134.208372,74.5117367 131.608917,70.4712246 132.496964,65.4638456 C135.374857,49.234268 133.914114,37.008624 128.15411,29.1259676 C124.946451,24.7362017 120.376839,21.7434513 114.823554,20.3453807 C115.928867,11.7170867 121.922309,7.80530262 125.240006,6.91581316 C127.115594,6.41321117 128.228641,4.48440127 127.725906,2.60799704 C127.223172,0.731944534 125.295202,-0.382643095 123.420318,0.121014048 C116.570118,1.95732266 109.253042,8.69866096 107.855581,19.466091 C102.244639,19.4502637 97.1487374,21.1645269 92.9552971,24.5163793 C85.2926356,30.6415114 80.662906,42.0237407 79.1944284,58.3461713 C78.752514,63.2578836 75.5764963,66.1236646 71.1802042,70.0892612 C67.5918034,73.3264542 63.5945351,76.9406866 60.3925017,82.4045928 C56.4040224,80.7796654 52.1255039,79.7255729 47.6578446,79.3439612 C48.9241736,71.0603487 54.7478104,67.2779962 58.0011719,66.4060925 C59.8767591,65.9034905 60.9898068,63.9746806 60.487072,62.0986281 C59.9843373,60.2222239 58.0563673,59.1079879 56.1814832,59.6116451 C54.4148804,60.0850547 52.6180433,60.8887255 50.8985499,61.9994442 C50.0987447,58.0500266 48.1637434,54.3457549 45.2338196,51.4149065 C41.30827,47.4876469 36.0886181,45.324946 30.5367393,45.324946 C28.7195116,45.324946 26.9096666,45.5623542 25.1571263,46.0301363 C23.941774,46.3547701 22.992203,47.3047547 22.6677106,48.5206365 C20.7576702,55.6766478 22.8199373,63.3728947 28.0497845,68.6060753 C31.6888104,72.2466864 36.4415871,74.3675332 41.5392468,74.6584022 C41.0948715,76.1138025 40.7644025,77.6627593 40.5724492,79.3052724 C17.9145824,81.0082807 0,99.9953109 0,123.090383 C0,147.302152 19.6892711,167 43.8901468,167 C52.8845278,167 61.4521118,164.325552 68.7867651,159.252403 C69.9420003,159.759577 71.1011026,160.247759 72.2654784,160.707099 C82.8461106,164.882319 93.5392428,167 104.047101,167 C120.948832,167 136.635561,161.474895 149.411351,151.022251 C162.764758,140.096901 172.606405,123.930983 177.871409,104.272176 C179.589496,97.8603955 181.105083,82.7527915 178.903246,70.6906954 Z M75.8893871,75.3136489 C80.6182575,71.0473353 85.5081436,66.635763 86.1975581,58.9771496 C87.4874418,44.6394517 91.2375615,34.8941081 97.3445578,30.0126434 C100.969873,27.1148562 105.450891,25.9974549 110.664567,26.6945557 C115.813555,27.3821603 119.788323,29.5969152 122.478129,33.2779736 C127.062508,39.5518815 128.104188,49.9675956 125.573639,64.2353021 C124.203599,71.9593345 127.956883,77.7925424 131.586417,83.4340652 C133.620559,86.5956392 135.714467,89.8556937 137.138296,93.6500047 C125.289577,110.768017 107.310307,123.251468 87.5268168,127.82272 C87.6955669,126.253363 87.7813483,124.672401 87.7813483,123.090383 C87.7813483,107.224831 79.3259129,93.2979371 66.6872325,85.5809389 C69.3176249,81.2499095 72.6483302,78.2378147 75.8893871,75.3136489 Z M33.0208816,63.6317576 C30.0674031,60.6766408 28.6407615,56.533076 29.0717774,52.4362894 C29.5576371,52.3849389 30.0459578,52.3585602 30.5360362,52.3585602 C34.2095153,52.3585602 37.6636191,53.7896921 40.2609646,56.388169 C43.2147948,59.3432859 44.6417879,63.4872024 44.2104204,67.5836373 C43.7249123,67.6349878 43.2362401,67.6610148 42.7472163,67.6610148 L42.7465132,67.6610148 C39.0719795,67.6613665 35.6182271,66.2302345 33.0208816,63.6317576 Z M43.8901468,159.965682 C23.5659534,159.965682 7.03125474,143.423781 7.03125474,123.090383 C7.03125474,102.756984 23.5659534,86.2150826 43.8901468,86.2150826 C64.2146917,86.2150826 80.749742,102.756984 80.749742,123.090383 C80.749742,125.117673 80.5841559,127.141446 80.256851,129.13251 C77.9952479,129.424434 75.7181761,129.609788 73.4305573,129.687869 C73.9121983,127.530796 74.1639172,125.326592 74.1639172,123.090383 C74.1639172,119.129358 73.4020807,115.262594 71.8998532,111.598066 C71.1633292,109.801501 69.1105544,108.941204 67.3130141,109.678753 C65.5168801,110.415949 64.6576608,112.470321 65.3945363,114.26759 C66.5480136,117.080965 67.1326625,120.049095 67.1326625,123.090383 C67.1326625,125.301972 66.8194201,127.474521 66.2069978,129.578134 C61.1754319,129.254203 56.1364832,128.422395 51.1717142,127.091502 C50.1606198,126.820329 49.080619,127.014477 48.2266731,127.620835 C45.1019835,129.840162 41.9526845,132.631731 40.0851833,137.984143 C39.6038939,139.363573 40.0250661,140.897054 41.1433871,141.836839 C47.6015946,147.264167 54.3491382,151.864962 61.2995335,155.599833 C55.9793346,158.466669 50.0555025,159.965682 43.8901468,159.965682 Z M171.07992,102.452046 C161.434093,138.465291 136.375404,159.965682 104.047453,159.965682 C85.1748621,159.965682 65.2535596,152.224768 47.6947587,138.117444 C48.6253453,136.44609 49.7760101,135.295627 51.0124563,134.313636 C57.6141014,135.943136 64.3275434,136.768261 70.9942276,136.768261 C89.8622481,136.768261 108.055268,130.33573 123.606294,118.166008 C131.512589,111.978974 138.364898,104.523653 143.853847,96.2569228 C143.919238,96.1682904 143.980761,96.0768442 144.037363,95.9825844 C148.370373,89.4058491 151.841001,82.3198293 154.288581,74.9513815 C159.215732,72.4710811 159.591553,67.4471715 159.956123,62.5737962 C160.039444,61.459912 160.124874,60.3175389 160.255303,59.1122085 C161.19046,58.4348037 162.429719,57.898437 163.672142,57.6226918 C164.609056,62.0947592 166.430854,67.8351141 172.187694,73.1358242 C173.816484,83.4980775 172.633827,96.6497894 171.07992,102.452046 Z" id="Shape"></path>
                <path d="M113.849508,34.270812 C112.069814,33.529471 110.019844,34.3622626 109.273001,36.1332054 C108.526159,37.9041481 109.364259,39.9417928 111.145352,40.6845248 C113.689021,41.7450736 115.093546,49.377896 112.856515,61.914279 C112.519108,63.8051854 113.786921,65.6102048 115.688642,65.9457555 C115.895282,65.9822662 116.100874,66 116.303668,66 C117.96693,66 119.441734,64.814967 119.742429,63.1299114 C121.743099,51.9193883 122.344488,37.8126975 113.849508,34.270812 Z" id="Path"></path>
                <path d="M136.303319,134.392436 C135.152137,132.852456 132.970345,132.543345 131.435204,133.698592 C131.433814,133.699289 131.418872,133.71044 131.41783,133.711137 C129.870179,134.847565 129.540426,137.022147 130.67215,138.575022 C131.351462,139.506886 132.408479,140 133.479743,140 C134.193455,140 134.913769,139.781148 135.532968,139.327413 L135.61254,139.268518 C137.147682,138.11362 137.454849,135.932417 136.303319,134.392436 Z" id="Path"></path>
                <path d="M128.61499,139.868181 C127.732844,138.182186 125.621581,137.514442 123.898294,138.376988 C111.90258,144.381544 101.781907,144.143872 101.632605,144.137356 C99.7060424,144.071851 98.0784355,145.541094 98.0027329,147.430808 C97.9270302,149.323265 99.4333727,150.917689 101.367645,150.991769 C101.421268,150.993827 101.609824,151 101.922798,151 C104.427644,151 114.867249,150.601823 127.090423,144.48306 C128.813709,143.6212 129.496084,141.554519 128.61499,139.868181 Z" id="Path"></path>
                <path d="M65.0017655,102.118558 L64.8881608,102.00461 C63.5363,100.660369 61.3501873,100.665548 60.0048872,102.017731 C58.6599323,103.369914 58.6658025,105.556334 60.0180087,106.901265 L60.0922488,106.975504 C60.7676613,107.658501 61.6571615,108 62.5470071,108 C63.4244218,108 64.3025271,107.667479 64.9755225,107.001747 C66.3311817,105.660959 66.342922,103.474193 65.0017655,102.118558 Z" id="Path"></path>
            </g>
        </g>
    </g>
</svg>