<?xml version="1.0" encoding="UTF-8"?>
<svg width="234px" height="225px" viewBox="0 0 234 225" version="1.1" xmlns="http://www.w3.org/2000/svg" xmlns:xlink="http://www.w3.org/1999/xlink">
    <!-- Generator: Sketch 58 (84663) - https://sketch.com -->
    <title>2</title>
    <desc>Created with Sketch.</desc>
    <g id="Page-1" stroke="none" stroke-width="1" fill="none" fill-rule="evenodd">
        <g id="2" transform="translate(-18.000000, 0.000000)">
            <path d="M110.604245,223.763263 C166.375777,223.763263 230.457934,195.19637 230.457934,139.457846 C230.457934,83.7193216 176.0332,31.375909 120.261668,31.375909 C64.4901353,31.375909 15.6594583,72.5614256 15.6594583,128.29995 C15.6594583,184.038474 54.8327121,223.763263 110.604245,223.763263 Z" id="Oval" fill="#F6F8F0" transform="translate(123.058696, 127.569586) rotate(-170.000000) translate(-123.058696, -127.569586) "></path>
            <path d="M208.656725,221.181895 C212.988495,221.181895 217,217.553211 217,213.330595 C217,209.10798 212.810136,206 208.478366,206 C204.146597,206 201,209.803611 201,214.026227 C201,218.248842 204.324956,221.181895 208.656725,221.181895 Z" id="Oval-Copy" fill="#F6F8F0" transform="translate(209.000000, 213.590948) rotate(-280.000000) translate(-209.000000, -213.590948) "></path>
            <path d="M34.3563598,45.8699536 C42.4784276,45.8699536 50,39.0964092 50,31.2141936 C50,23.331978 45.3683522,13 37.2462843,13 C29.1242165,13 20,24.6304897 20,32.5127053 C20,40.3949208 26.234292,45.8699536 34.3563598,45.8699536 Z" id="Oval-Copy-3" fill="#F6F8F0" transform="translate(35.000000, 29.434977) rotate(-145.000000) translate(-35.000000, -29.434977) "></path>
            <path d="M239.527997,202 C245.48418,202 251,196.919842 251,191.00818 C251,185.096518 249.59968,181 243.643497,181 C237.687313,181 229,186.070402 229,191.982064 C229,197.893725 233.571814,202 239.527997,202 Z" id="Oval-Copy-2" fill="#F6F8F0" transform="translate(240.000000, 191.500000) rotate(-280.000000) translate(-240.000000, -191.500000) "></path>
            <g id="003-carrot" transform="translate(77.000000, 0.000000)" fill="#A9C623" fill-rule="nonzero">
                <path d="M170.16076,60.758935 C169.32486,58.3408826 167.92,56.2139849 166.07514,54.523819 C168.570144,51.7177831 170.1053,48.9217639 170.708004,46.1083823 C171.390555,42.9233779 171.162035,38.0849359 166.196082,33.1219518 C165.218861,32.1453151 164.21959,31.4474789 163.317539,30.9312805 C167.911648,24.4200351 167.296583,15.3334736 161.471343,9.51171703 C155.646103,3.69062819 146.554439,3.07492968 140.039298,7.66662486 C139.523125,6.76511402 138.824871,5.76644036 137.84765,4.78980362 C132.881362,-0.172846564 128.039357,-0.400895416 124.852113,0.281247781 C122.037382,0.883924467 119.23969,2.41849624 116.432309,4.91167453 C109.611139,-2.62595771 97.0916838,-1.22894981 92.020491,7.54475395 C91.2931713,7.07964114 90.4185166,6.62220786 89.3741429,6.26160353 C83.408584,4.20248601 79.3633899,5.86927937 77.0214002,7.63089832 C70.3966764,12.6129143 67.6083389,25.3629486 68.5130619,46.5791713 C37.7959127,56.251047 -18.4101693,138.265494 5.96690311,164.923837 C17.5699419,175.657492 36.9048875,170.220046 53.2136217,163.539183 C80.16421,151.445916 113.11076,129.262072 124.382378,102.415079 C140.217035,103.321933 158.376643,101.430763 163.352619,93.9131645 C165.835596,91.021652 166.905695,84.4369501 163.440151,78.9217072 C166.020349,77.4148485 168.102415,75.1750949 169.445133,72.4171396 C171.2342,68.7416465 171.488444,64.6013745 170.16076,60.758935 L170.16076,60.758935 Z M126.252295,6.81119124 C127.72531,6.49499467 130.040906,6.4325567 133.122577,9.51238481 C135.444521,11.6800175 134.720542,14.9641881 138.344112,15.871709 C140.511705,16.2920802 142.062563,14.7438188 142.572054,14.2346321 C146.479936,10.328753 152.838388,10.3290868 156.74627,14.2346321 C160.613393,17.9375044 160.612725,24.6978339 156.745936,28.4003723 C156.236445,28.909559 154.686589,30.4588221 155.10788,32.625787 C155.521153,34.752017 157.31523,35.5132928 158.50293,36.0174711 C159.431707,36.4117986 160.484768,36.8588812 161.471009,37.844533 C164.553014,40.9243611 164.489871,43.2379051 164.174153,44.7103728 C162.631981,54.9455257 132.494483,67.9279495 121.999964,71.6725584 C120.973297,69.8645283 119.782925,68.0615067 118.427511,66.2598206 L130.042577,58.3448894 C131.567042,57.3061485 131.960269,55.2286669 130.920906,53.7051136 C129.881544,52.1812264 127.802485,51.7882345 126.278354,52.8273092 L114.110365,61.1188716 C113.437836,60.3936562 112.73858,59.6681069 112.012263,58.9418899 C111.285611,58.2156728 110.559628,57.5171689 109.833979,56.8450425 L118.130502,44.6843291 C119.169864,43.1607758 118.776971,41.0836281 117.252172,40.0445534 C115.727708,39.0051448 113.648983,39.3984706 112.609621,40.9223578 L104.689954,52.5304784 C102.88719,51.1762088 101.082755,49.9865484 99.2739772,48.9601616 C103.077956,38.3353556 116.024716,8.35945263 126.252295,6.81119124 L126.252295,6.81119124 Z M81.0388646,12.9671747 C82.0237699,12.2262663 83.732988,11.3798478 87.1925177,12.5738488 C88.3047122,12.9578257 89.0474003,13.6039084 89.702556,14.1741975 C90.5725334,14.9311327 92.0281752,16.1982563 94.0815088,15.6493363 C96.1709244,15.0917352 96.8568167,13.1070758 97.0819951,12.4549829 C97.8270218,10.2987026 99.3792164,8.55611555 101.451927,7.54809288 C103.524304,6.54007021 105.853933,6.39516069 108.011837,7.14007575 C109.531291,7.6646215 110.849286,8.59351155 111.848223,9.8232391 C104.445398,18.7385135 96.5294058,37.2238261 93.2021768,46.1350938 C89.5505438,44.8051983 85.8641652,44.1220535 82.1156454,44.0723034 C79.7876876,44.0415853 77.4737617,44.2489328 75.1267606,44.6960154 C74.338636,21.6544002 78.437619,14.9231193 81.0388646,12.9671747 L81.0388646,12.9671747 Z M101.955071,122.895068 C93.4564214,131.388636 82.5857138,139.735625 71.2155376,146.67826 L61.2759463,136.744612 C58.0168722,133.736905 53.542703,138.213073 56.5512076,141.466859 L65.2529855,150.163434 C48.6656181,159.896412 19.8741791,170.175973 10.6916418,160.20159 C6.23852046,155.751131 5.43402529,147.213156 8.18594669,135.893853 L15.4788558,143.182401 C18.7332526,146.192112 23.2144377,141.709599 20.2039286,138.460154 L10.3274808,128.589612 C17.7373223,107.191751 32.3401793,84.8453011 48.0211533,68.9930679 C50.8432341,66.1726745 53.5981624,63.6851724 56.2936221,61.5262209 L65.4988777,70.725972 C68.7532745,73.7356826 73.2344596,69.2531704 70.2239505,66.0037247 L61.7600466,57.5452159 C68.8869116,52.905774 75.477892,50.6783745 82.0274449,50.7491598 C97.6796869,49.9140936 121.045127,73.2648936 120.209895,88.9084438 C120.348878,99.3629645 114.377639,110.479929 101.955071,122.895068 Z M163.436476,69.4952428 C162.427851,71.5670482 160.684221,73.1179808 158.52665,73.8625619 C157.874167,74.0879396 155.88832,74.7734218 155.330386,76.8612541 C154.78214,78.9133598 156.049353,80.3681312 156.806407,81.2375883 C157.377037,81.8923523 158.023841,82.6349301 158.407713,83.7461257 C159.602763,87.2039206 158.75517,88.9127844 158.013818,89.8971007 C156.055367,92.4974586 149.318388,96.5916534 126.266661,95.8043339 C127.432979,89.6897532 126.984292,83.6459578 124.826388,77.7400602 C133.653116,74.4542202 152.244372,66.5052319 161.159969,59.1048296 C162.390098,60.1025016 163.318876,61.4190413 163.844404,62.9389218 C164.590098,65.095536 164.445102,67.4237712 163.436476,69.4952428 L163.436476,69.4952428 Z" id="Shape"></path>
                <path d="M65.6394801,96.9804143 C62.4257382,94.0127598 58.0138026,98.4293202 60.9804603,101.639777 L71.3761164,112.035133 C72.6626015,113.321622 74.7486511,113.321622 76.0351362,112.035133 C77.3216213,110.748645 77.3216213,108.662589 76.0351362,107.3761 L65.6394801,96.9804143 Z" id="Path"></path>
            </g>
        </g>
    </g>
</svg>