<?xml version="1.0" encoding="UTF-8"?>
<svg width="226px" height="210px" viewBox="0 0 226 210" version="1.1" xmlns="http://www.w3.org/2000/svg" xmlns:xlink="http://www.w3.org/1999/xlink">
    <!-- Generator: Sketch 58 (84663) - https://sketch.com -->
    <title>3</title>
    <desc>Created with Sketch.</desc>
    <g id="Page-1" stroke="none" stroke-width="1" fill="none" fill-rule="evenodd">
        <g id="3" transform="translate(-15.000000, 0.000000)">
            <path d="M123.479492,208.646066 C179.251024,208.646066 235.524956,192.841194 235.524956,137.10267 C235.524956,81.3641457 173.783955,21.2470317 118.012423,21.2470317 C62.24089,21.2470317 15.2286204,91.8485817 15.2286204,147.587106 C15.2286204,203.32563 67.7079592,208.646066 123.479492,208.646066 Z" id="Oval" fill="#F6F8F0" transform="translate(125.376788, 114.946549) rotate(-170.000000) translate(-125.376788, -114.946549) "></path>
            <path d="M29.6277729,203.999054 C38.2913119,203.999054 46.3143224,196.828636 46.3143224,188.484588 C46.3143224,180.14054 37.9345937,173.999054 29.2710546,173.999054 C20.6075156,173.999054 14.3143224,181.515134 14.3143224,189.859182 C14.3143224,198.20323 20.9642339,203.999054 29.6277729,203.999054 Z" id="Oval-Copy" fill="#F6F8F0" transform="translate(30.314322, 188.999054) rotate(-280.000000) translate(-30.314322, -188.999054) "></path>
            <path d="M226.032681,194.396379 C231.718129,194.396379 236.983229,189.656746 236.983229,184.141346 C236.983229,178.625945 233.741076,171.396379 228.055628,171.396379 C222.370181,171.396379 215.983229,179.534549 215.983229,185.049949 C215.983229,190.56535 220.347234,194.396379 226.032681,194.396379 Z" id="Oval-Copy-3" fill="#F6F8F0" transform="translate(226.483229, 182.896379) rotate(-145.000000) translate(-226.483229, -182.896379) "></path>
            <path d="M32.8391214,23.5545958 C36.9001553,23.5545958 40.6609415,20.1678235 40.6609415,16.2267158 C40.6609415,12.285608 39.7061776,9.55459576 35.6451437,9.55459576 C31.5841098,9.55459576 25.6609415,12.9348638 25.6609415,16.8759716 C25.6609415,20.8170794 28.7780875,23.5545958 32.8391214,23.5545958 Z" id="Oval-Copy-2" fill="#F6F8F0" transform="translate(33.160941, 16.554596) rotate(-280.000000) translate(-33.160941, -16.554596) "></path>
            <g id="001-grapes" transform="translate(159.500000, 83.500000) scale(-1, 1) translate(-159.500000, -83.500000) translate(87.000000, 0.000000)" fill="#A9C623" fill-rule="nonzero">
                <path d="M116.974197,130.358039 C115.280098,129.526912 113.218765,130.191814 112.366354,131.844905 C111.515284,133.497997 112.19748,135.512335 113.89024,136.344771 C115.258654,137.017525 116.383139,138.059379 117.141731,139.359078 C118.823768,142.243808 118.360035,145.934797 116.013225,148.335248 C114.705123,149.674214 114.756053,151.794569 116.125807,153.073326 C116.79058,153.692418 117.642991,154 118.495402,154 C119.400083,154 120.303424,153.653152 120.977579,152.963382 C125.401805,148.43734 126.27566,141.479433 123.104585,136.042424 C121.674519,133.590927 119.554214,131.625017 116.974197,130.358039 Z" id="Path"></path>
                <path d="M39.3416965,133.321155 L39.3323312,133.316473 C37.8514336,132.576619 36.0567964,133.178335 35.315762,134.659213 C34.5758985,136.13892 35.1811352,137.941728 36.6620328,138.682753 C37.0928394,138.898153 37.5494008,139 38.0001088,139 C39.0993677,139 40.1576535,138.392431 40.6832846,137.342353 C41.4231481,135.861475 40.8225941,134.062179 39.3416965,133.321155 L39.3416965,133.321155 Z" id="Path"></path>
                <path d="M137.385503,65.2048011 C137.932926,66.3521496 138.954082,67 140.007989,67 C140.496927,67 140.994053,66.8598138 141.453749,66.5644703 C142.900678,65.6335257 143.425877,63.5144018 142.625796,61.8294462 L142.590705,61.7573117 C141.775418,60.0859666 139.955352,59.5088898 138.51778,60.4534449 C137.080209,61.399361 136.577234,63.5307341 137.385503,65.2048011 Z" id="Path"></path>
                <path d="M144.89566,79.9190442 C145.34626,78.174775 144.295711,76.3948305 142.548199,75.9450665 C140.800688,75.4953021 139.018711,76.5439024 138.566834,78.2881716 C137.38353,82.864808 134.551005,86.7062777 130.556875,89.186988 C128.33451,87.6848013 125.858124,86.5355458 123.192818,85.8067493 C118.075379,84.4064925 112.76519,84.6727833 107.89539,86.517708 C106.791228,85.3977571 105.835139,84.1402016 105.044993,82.7552339 C102.631155,78.52898 102.013335,73.6172505 103.301311,68.9246691 C104.589287,64.2333621 107.631157,60.3230899 111.866543,57.9162786 C117.700092,54.5984721 124.866293,54.7424475 130.56964,58.2908699 C132.101425,59.2451851 134.115722,58.7775833 135.070535,57.2486401 C136.025348,55.719697 135.558153,53.7078626 134.026368,52.7548214 C132.471606,51.7877651 130.836425,51.0105522 129.152738,50.4168125 C131.784856,48.3298053 133.896167,45.7930337 135.173931,42.9491995 C137.783071,37.1430381 136.276816,31.1228246 131.144059,26.8456063 C125.946201,22.5136008 117.51883,23.7367553 112.357991,29.5734956 C111.164475,30.924062 110.471342,32.5485638 110.261998,34.2278532 C109.557377,27.3998479 107.453725,19.2378401 102.317139,11.2720464 C101.779738,10.4387722 100.893855,9.89472353 99.9071305,9.79279399 C98.9204056,9.68959008 97.9413395,10.039973 97.2443771,10.7432868 C97.1831057,10.8057186 91.6035782,16.4386001 83.7991331,24.1941638 C81.7452646,21.7593222 78.3868255,18.1561125 73.8055115,14.4560702 C63.2617238,5.94113135 51.1465797,0.945309777 38.7723088,0.00883196744 C37.5902811,-0.0778080777 36.4478246,0.477707924 35.7955393,1.46769851 C35.6512963,1.68684703 32.2417978,6.9272995 30.6193823,15.4613505 C29.3888482,21.9351505 29.0161138,31.4566437 33.0893856,42.482872 C31.4733524,42.0980878 29.6466985,41.7578982 27.6668662,41.5425718 C17.7498339,40.463393 8.60762969,43.0116316 1.22570168,48.913352 C0.251741543,49.6918387 -0.192476085,50.954491 0.0781392263,52.1687265 C0.19174687,52.6783742 2.80216398,63.8906238 14.1794981,76.6738624 C9.74497992,79.4743767 3.40466614,85.4665597 1.9954238,97.2649041 C1.92649331,97.8382576 2.01201806,98.419256 2.24178583,98.9492896 C2.44730026,99.423262 7.05031479,109.572896 21.9890492,110.578176 C20.8057454,115.579094 21.1733739,120.97499 23.3485088,126.016679 C23.880804,127.251301 25.0858083,127.989016 26.3520841,127.989016 C26.7822603,127.989016 27.2213721,127.90365 27.6426131,127.722725 C29.2994939,127.010492 30.0653865,125.091669 29.3518298,123.436588 C27.2660492,118.60258 27.4396515,113.326451 29.456502,108.826262 C29.49352,108.753638 29.5292617,108.678464 29.5611741,108.602017 C31.1095535,105.270196 33.6727407,102.377945 37.0911744,100.434913 C45.833838,95.4632993 56.9979989,98.5186375 61.9775771,107.243806 C62.7689994,108.630048 63.3638428,110.092737 63.7659361,111.612761 C57.3860512,116.704142 54.055695,124.551442 54.5241657,132.425499 C51.9290665,133.768421 49.0493104,134.475557 46.1389186,134.475557 C46.0904123,134.475557 46.0419056,134.475557 45.9933992,134.475557 C45.9844637,134.475557 45.9755282,134.475557 45.9665927,134.475557 C44.1744044,134.475557 42.7141026,135.91786 42.6987844,137.710546 C42.6847433,139.512151 44.1361096,140.983759 45.9410633,140.999048 L46.1389186,140.999048 C49.4718279,140.999048 52.7753779,140.317394 55.8389482,139.012696 C56.3303958,140.428243 56.9520454,141.819581 57.7204908,143.167599 C62.2852105,151.165246 70.6742875,155.655242 79.2956847,155.655242 C82.4205264,155.655242 85.5772802,155.064051 88.5923442,153.837074 C88.7123339,154.062593 88.8297707,154.29066 88.9574195,154.513631 C93.5221392,162.511278 101.911216,167 110.532613,167 C114.687581,167 118.89616,165.95777 122.757535,163.762463 C128.509388,160.491799 132.641379,155.18127 134.391443,148.808125 C136.141508,142.436255 135.300303,135.764966 132.023559,130.023784 C131.89591,129.799539 131.75805,129.582939 131.624018,129.363791 C135.958971,126.093127 139.082535,121.519039 140.542837,116.202139 C142.292902,109.830268 141.451697,103.15898 138.174953,97.4177984 C137.411613,96.079973 136.532113,94.8338846 135.55943,93.6808067 C140.168827,90.322228 143.44557,85.5264434 144.89566,79.9190442 Z M92.7409288,103.123304 C92.1511917,105.270196 91.8627053,107.451488 91.8550465,109.618765 C89.9837155,108.520474 87.9566532,107.655347 85.8057716,107.066704 C80.6870561,105.666446 75.3768676,105.932738 70.5083439,107.776388 C69.4041822,106.656437 68.4480931,105.398882 67.6579472,104.015188 C65.2453854,99.7876603 64.626289,94.8759304 65.9142649,90.1846234 C67.2022412,85.4933161 70.2453876,81.5830442 74.479497,79.1749586 C83.2221607,74.2033453 94.3863216,77.2586832 99.3658997,85.9851263 C100.156046,87.3688197 100.752165,88.8315086 101.154259,90.3502588 C97.0809867,93.5903442 94.1437888,98.0140863 92.7409288,103.123304 L92.7409288,103.123304 Z M96.9980151,67.1995118 C96.4070012,69.3527732 96.1185152,71.5391619 96.1121328,73.7128095 C89.6658702,69.9261267 81.6559103,69.1374471 74.419502,71.9914743 C73.094508,68.4417778 72.9106938,64.5786482 73.9344367,60.8531235 C75.2224126,56.1618165 78.2642827,52.2515442 82.4983921,49.8434589 C86.7005894,47.4532112 91.8244108,46.8454564 96.5550738,48.1730885 C99.3084579,48.946479 101.768249,50.3097868 103.799141,52.1419701 C103.961255,52.3343622 104.145069,52.5089165 104.350584,52.6605367 C104.802461,53.1064783 105.230084,53.5766282 105.632177,54.0709868 C105.650048,54.1168548 105.670472,54.1614491 105.689619,54.2073174 C101.472104,57.4652406 98.4327872,61.9743484 96.9980151,67.1995118 Z M113.29238,42.1477786 C115.085845,43.7264124 117.378416,44.5393003 119.734813,44.4373708 C122.142268,44.3316188 124.335274,43.2919375 125.91046,41.5094449 C127.103976,40.1588785 126.97505,38.0973533 125.621974,36.906052 C124.26762,35.7147504 122.20354,35.8421624 121.008747,37.1940028 C120.619418,37.6348479 120.065423,37.8922202 119.448879,37.9189766 C118.782553,37.9470074 118.135374,37.7125695 117.61712,37.2564346 C116.583165,36.3454396 116.422327,34.835608 117.258427,33.8902117 C120.338591,30.4067694 124.759068,30.0232596 126.954627,31.8541689 C129.871401,34.2839144 130.629635,37.1188297 129.21018,40.2799199 C127.40395,44.2972178 122.446072,48.0647884 116.515511,49.3924209 C116.206601,49.4472078 115.898967,49.5096395 115.591334,49.5758941 C113.97913,49.8625708 112.305655,49.9632263 110.611756,49.8421849 C110.361564,49.5376703 110.103714,49.2420747 109.839481,48.9515755 C110.22115,46.735882 110.720257,42.731325 110.51219,37.7036505 C110.965343,39.3612796 111.898455,40.9182535 113.29238,42.1477786 L113.29238,42.1477786 Z M8.62294754,97.0291918 C10.6232034,84.0663025 20.126654,80.8861008 20.5172591,80.761237 C21.613762,80.4299663 22.4575202,79.5482754 22.7383475,78.4385178 C23.0191748,77.3300339 22.6974999,76.1552961 21.8894833,75.3424078 C12.3426323,65.7342745 8.40849762,56.595017 7.05924996,52.7089531 C12.7204726,48.8254376 19.3301257,47.2442556 26.7414127,48.0049048 C33.0459852,48.6521573 37.5992166,50.8334495 37.6375111,50.8512874 C38.9037868,51.4743316 40.4291896,51.2131372 41.4171912,50.2040348 C42.403916,49.1962064 42.6311306,47.6685373 41.977569,46.4173523 C36.8792776,36.6550503 35.2006963,26.7474989 36.9852261,16.9711818 C37.851961,12.2276357 39.3697047,8.65627927 40.3436648,6.71197343 C50.7151267,7.9083715 60.5236579,12.1690263 69.5305546,19.3958308 C76.7924926,25.2236522 80.7674749,30.8947572 80.8044933,30.946996 C81.3533828,31.7433204 82.2277767,32.2555165 83.1928014,32.3447047 C84.1565496,32.4364413 85.1113623,32.0924293 85.7981129,31.4107754 C91.3227513,25.9346109 96.0125667,21.2394815 98.8808344,18.361246 C104.034015,28.3312292 104.289312,38.3509031 103.8285,44.1698059 C102.118007,43.2091198 100.274759,42.4408262 98.3242858,41.8942287 C91.9227003,40.0951723 84.9747781,40.9271721 79.2637726,44.1749024 C72.7958098,47.8532848 68.6242482,54.0200221 67.2545771,60.7881436 C66.1542446,55.4508578 64.3301438,47.836721 61.6188841,40.0837053 C61.0240411,38.382756 59.1603688,37.484502 57.4562581,38.0795158 C55.752147,38.6732552 54.8534997,40.5334694 55.4483431,42.2331446 C58.210662,50.1339581 60.0334867,58.0334976 61.0661651,63.1949549 C54.8471174,61.3882536 47.9349368,61.9896379 41.8767267,65.4348564 C40.6564042,66.1279773 39.5241599,66.9141091 38.469781,67.7728653 C35.0934713,66.3229177 29.5267089,63.4930986 27.2596668,60.4683396 C26.1784817,59.0247626 24.1309956,58.7304409 22.6847352,59.80962 C21.2397512,60.8887988 20.9448825,62.9324861 22.0260676,64.3760635 C24.8190225,68.1041363 30.0513454,71.0575446 33.7876244,72.8247481 C29.079938,79.617078 27.9617349,88.537187 31.2793263,96.4558383 C28.4519061,98.5619574 26.170823,101.19174 24.5113887,104.138862 C14.1143971,104.162986 9.8522052,98.9709499 8.62294754,97.0291918 Z M37.0337325,93.2501542 C33.9842036,85.0422777 37.246906,75.5755717 45.1113462,71.1034132 C52.9757863,66.6312544 62.7983587,68.6571042 68.3166148,75.4621752 C62.1626677,80.2235588 58.7582754,87.510247 58.7404045,94.9829564 C52.291589,91.187355 44.2752467,90.394853 37.0337325,93.2501542 Z M63.3995844,139.938981 C58.4200063,131.212538 61.4797471,120.069091 70.2224107,115.098751 C74.4565201,112.690666 79.3773799,112.073992 84.0774072,113.358304 C88.7787112,114.645165 92.6949752,117.681391 95.107537,121.907645 C95.2364622,122.133164 95.359005,122.361231 95.4777183,122.590573 C91.1593609,125.859963 88.0472839,130.425132 86.5895349,135.730565 C85.4968614,139.709639 85.4151662,143.804658 86.3048784,147.716205 C77.9221841,151.230226 68.0102577,148.016897 63.3995844,139.938981 L63.3995844,139.938981 Z M128.088148,147.085516 C126.798895,151.776823 123.757025,155.687095 119.521639,158.09518 C116.678901,159.712038 113.580866,160.479057 110.521125,160.479057 C104.174428,160.477783 97.9962283,157.172718 94.6365128,151.285013 C92.2239514,147.058759 91.604855,142.145755 92.8928309,137.454448 C94.1820836,132.763141 97.2239533,128.852869 101.459339,126.444783 C110.19945,121.47317 121.364887,124.528508 126.344465,133.254951 C128.757027,137.481205 129.376124,142.392935 128.088148,147.085516 L128.088148,147.085516 Z M134.238265,114.478255 C133.145591,118.459878 130.786642,121.873244 127.508622,124.288974 C120.561977,117.745097 110.247957,115.67975 101.188724,119.347939 C101.05214,119.128791 100.918109,118.908368 100.79046,118.684123 C100.789184,118.681575 100.787907,118.680301 100.78663,118.679026 C100.78663,118.676478 100.785354,118.675204 100.784077,118.67393 C98.3740686,114.447676 97.7562489,109.538495 99.0442248,104.848462 C100.332201,100.157155 103.374071,96.2468828 107.609457,93.8387972 C111.843566,91.4294379 116.764426,90.8127641 121.46573,92.0996244 C123.972752,92.7851008 126.253835,93.9725799 128.205585,95.5703253 C128.21069,95.5741478 128.21452,95.5779702 128.219626,95.5817923 C129.921184,96.976953 131.37255,98.6817248 132.495859,100.647691 C134.908421,104.875218 135.527518,109.786948 134.238265,114.478255 Z" id="Shape"></path>
                <path d="M52.3879266,33.9917934 C52.9648835,35.2537521 54.2241895,36 55.5429478,36 C56.0185655,36 56.5022902,35.902721 56.9630451,35.697503 C58.7047247,34.921938 59.4789546,32.9017385 58.6925641,31.1840354 L58.612844,31.0081341 C57.8264532,29.2917639 55.7780541,28.5281924 54.0363745,29.3024245 C52.2946948,30.0779895 51.521816,32.0981893 52.3068554,33.8158921 L52.3879266,33.9917934 Z" id="Path"></path>
                <path d="M89.0038584,125.055445 C90.304647,123.76991 90.3354046,121.652173 89.0730631,120.326138 C84.6350033,115.662153 77.6658524,114.652276 72.125647,117.868727 C71.4528251,118.259352 70.8069163,118.71138 70.2058624,119.21044 C68.8025486,120.378395 68.5936534,122.485681 69.7393727,123.916231 C70.885092,125.348087 72.9535378,125.561037 74.3555698,124.391774 C74.6746798,124.127874 75.0168577,123.887489 75.3744141,123.679765 C78.3130427,121.973557 82.0090766,122.510503 84.3633115,124.983591 C85.0079384,125.660326 85.8627424,126 86.7188279,126 C87.5428743,126 88.3669207,125.685148 89.0038584,125.055445 L89.0038584,125.055445 Z" id="Path"></path>
                <path d="M110.125717,96.8687271 C109.45288,97.2593522 108.806957,97.7113801 108.205889,98.2117458 C106.802544,99.3797019 106.593644,101.485681 107.739389,102.917537 C108.885134,104.348087 110.952345,104.561037 112.35569,103.393081 C112.674807,103.127874 113.016992,102.887489 113.373276,102.681072 C116.313252,100.973557 120.009368,101.510503 122.363656,103.984897 C123.007016,104.660326 123.861839,105 124.719226,105 C125.542009,105 126.366073,104.686455 127.004307,104.055445 C128.303843,102.76991 128.335883,100.652173 127.073513,99.3261377 C122.634072,94.6621526 115.666047,93.6522757 110.125717,96.8687271 L110.125717,96.8687271 Z" id="Path"></path>
                <path d="M115.125739,62.8687272 C114.451616,63.2593524 113.805688,63.7113799 113.205898,64.2117459 C111.802543,65.3797017 111.593641,67.4856808 112.739395,68.9175373 C113.885148,70.3480871 115.952373,70.5610367 117.355728,69.3930806 C117.673566,69.1278738 118.017036,68.8887955 118.374603,68.6810717 C121.312037,66.9748633 125.009462,67.5105029 127.363766,69.9848974 C128.007131,70.660326 128.86196,71 129.719353,71 C130.542142,71 131.366213,70.6864548 132.003169,70.0554449 C133.303996,68.7699095 133.336036,66.6521729 132.073657,65.3261378 C127.634185,60.6621527 120.666109,59.6522756 115.125739,62.8687272 L115.125739,62.8687272 Z" id="Path"></path>
                <path d="M77.1268139,83.8687273 C76.4539944,84.2593521 75.8080876,84.71138 75.2070352,85.2117456 C73.8024443,86.3797017 73.5935501,88.4869868 74.7392655,89.917537 C75.8862628,91.3480871 77.9534207,91.562343 79.3567302,90.3930806 C79.6745573,90.1278735 80.0167342,89.8887955 80.3742895,89.6810717 C83.3129093,87.974863 87.0089315,88.5105029 89.3644406,90.9848971 C90.0077844,91.6603257 90.8625854,92 91.7186685,92 C92.5427121,92 93.3667559,91.6864548 94.0036917,91.0554449 C95.3044763,89.7699095 95.3352337,87.6521729 94.0741776,86.3261378 C89.6335686,81.6621525 82.6657211,80.6522757 77.1268139,83.8687273 L77.1268139,83.8687273 Z" id="Path"></path>
                <path d="M53.3632358,112.984897 C54.0078715,113.660326 54.8626869,114 55.7187838,114 C56.5415598,114 57.3668988,113.686455 58.003845,113.055445 C59.3046511,111.76991 59.3354091,109.652173 58.0730507,108.326138 C53.6336498,103.662153 46.6644054,102.652276 41.1254071,105.868727 C40.4538577,106.258046 39.8079402,106.710073 39.2068782,107.210439 C37.8035459,108.377089 37.5933661,110.484374 38.7378193,111.916231 C39.8835536,113.346781 41.9507457,113.561037 43.3553599,112.393081 C43.6744741,112.127874 44.0179381,111.887489 44.3729363,111.681072 C47.3128858,109.974863 51.0089693,110.510503 53.3632358,112.984897 Z" id="Path"></path>
            </g>
        </g>
    </g>
</svg>