<?xml version="1.0" encoding="UTF-8"?>
<svg width="244px" height="225px" viewBox="0 0 244 225" version="1.1" xmlns="http://www.w3.org/2000/svg" xmlns:xlink="http://www.w3.org/1999/xlink">
    <!-- Generator: Sketch 58 (84663) - https://sketch.com -->
    <title>4</title>
    <desc>Created with Sketch.</desc>
    <g id="Page-1" stroke="none" stroke-width="1" fill="none" fill-rule="evenodd">
        <g id="4" transform="translate(-1.000000, -2.000000)">
            <path d="M170.650779,232.642566 C226.422311,232.642566 229.344564,181.06533 229.344564,125.326806 C229.344564,69.5882816 216.232474,30.9639661 160.460941,30.9639661 C104.689409,30.9639661 16.2656186,70.788231 16.2656186,126.526755 C16.2656186,182.26528 114.879246,232.642566 170.650779,232.642566 Z" id="Oval" fill="#F6F8F0" transform="translate(122.805091, 131.803266) rotate(-170.000000) translate(-122.805091, -131.803266) "></path>
            <path d="M8.65672523,51.1818954 C12.9884947,51.1818954 17,47.5532109 17,43.3305954 C17,39.1079799 12.8101356,36 8.4783661,36 C4.14659658,36 1,39.8036112 1,44.0262267 C1,48.2488421 4.32495571,51.1818954 8.65672523,51.1818954 Z" id="Oval-Copy" fill="#F6F8F0" transform="translate(9.000000, 43.590948) rotate(-280.000000) translate(-9.000000, -43.590948) "></path>
            <path d="M222.35636,224.869954 C230.478428,224.869954 238,218.096409 238,210.214194 C238,202.331978 233.368352,192 225.246284,192 C217.124216,192 208,203.63049 208,211.512705 C208,219.394921 214.234292,224.869954 222.35636,224.869954 Z" id="Oval-Copy-3" fill="#F6F8F0" transform="translate(223.000000, 208.434977) rotate(-145.000000) translate(-223.000000, -208.434977) "></path>
            <path d="M139.527997,24 C145.48418,24 151,18.9198417 151,13.00818 C151,7.09651831 149.59968,3 143.643497,3 C137.687313,3 129,8.07040207 129,13.9820637 C129,19.8937254 133.571814,24 139.527997,24 Z" id="Oval-Copy-2" fill="#F6F8F0" transform="translate(140.000000, 13.500000) rotate(-280.000000) translate(-140.000000, -13.500000) "></path>
            <g id="005-acorn" transform="translate(152.000000, 105.000000) scale(-1, 1) translate(-152.000000, -105.000000) translate(59.000000, 10.000000)" fill="#A9C623" fill-rule="nonzero">
                <path d="M51.7519412,126.567262 C50.2586512,125.255402 48.6775848,123.94024 47.0036431,122.547672 C38.2296535,115.249899 28.2843417,106.978136 28.2843417,96.6685132 C28.2843417,94.6427602 26.6537418,93 24.6421709,93 C22.6309641,93 21,94.6423933 21,96.6685132 C21,110.434609 32.8465249,120.287868 42.3649743,128.204886 C43.9999448,129.564804 45.5442252,130.849151 46.9635792,132.096078 C47.6537706,132.702484 48.506767,133 49.3561213,133 C50.3715585,133 51.3818967,132.574452 52.1023181,131.742801 C53.4247903,130.216699 53.2678128,127.899299 51.7519412,126.567262 L51.7519412,126.567262 Z" id="Path"></path>
                <path d="M91.3125386,115.137372 C89.3858031,114.586268 87.3917548,115.74303 86.8557865,117.717356 C83.209682,131.152051 91.963228,143.992221 98.9970432,154.309558 C100.198539,156.072721 101.333807,157.737538 102.360145,159.332585 C103.056071,160.41364 104.208711,161 105.383788,161 C106.068134,161 106.760079,160.801454 107.373855,160.386178 C109.041835,159.257249 109.502167,156.95523 108.401279,155.244766 C107.321742,153.56696 106.159332,151.862062 104.928884,150.057335 C98.4455133,140.547541 91.0975722,129.76928 93.8284412,119.708011 C94.3640476,117.732943 93.2378266,115.686992 91.3125386,115.137372 L91.3125386,115.137372 Z" id="Path"></path>
                <path d="M158.565246,64.5935732 L151.852404,62.7176981 C151.751321,62.6872685 151.651344,62.6553545 151.549522,62.6267803 C151.510048,62.6156475 151.470574,62.60971 151.431099,62.6000616 L150.709126,62.398187 C151.539561,60.2840702 153.083117,58.64755 156.436955,56.4157967 C158.989133,54.7265814 160.733011,52.1326413 161.34763,49.1115732 C161.962986,46.0867941 161.370871,43.0074644 159.684176,40.4476649 C158.003752,37.886381 155.424642,36.1363064 152.422383,35.5206631 C149.414591,34.9050198 146.355518,35.500253 143.811087,37.1968902 C135.72181,42.5729145 131.020681,48.4135472 128.634516,56.2302502 L121.861541,54.3376759 C118.387435,53.3654123 114.848768,52.9119366 111.332974,52.9609209 C106.52117,37.3883742 91.9529457,26.3891776 75.5511964,26.3891776 L67.3980967,26.3891776 C67.6371559,24.1281079 68.692263,22.1353385 71.3418359,19.0775322 C73.343219,16.7570876 74.3267558,13.7861171 74.1113074,10.7112405 C73.895859,7.63487948 72.5065117,4.83164294 70.2029844,2.82217434 C65.4413528,-1.34631335 58.1950549,-0.837915935 54.0480416,3.95586346 C47.6871481,11.319833 44.7096066,18.2158542 44.4838285,26.3891776 L37.4555614,26.3891776 C16.8023948,26.3891776 0,43.2909794 0,64.0662501 C0,68.147902 2.01909116,71.7619767 5.10325014,73.9584762 L5.10325014,96.7914575 C5.10325014,117.375986 18.4252675,128.860201 32.5290232,141.019064 C33.9648542,142.256659 35.4490135,143.536187 36.9150957,144.822767 C38.8589275,146.525342 40.7684499,147.914714 42.6148871,149.25807 C46.6574965,152.199725 50.1485726,154.739856 53.3600085,159.964846 C54.0318092,161.058086 55.2186201,161.723455 56.496185,161.724198 L56.4980296,161.724198 C57.7752256,161.724198 58.9616676,161.05957 59.6342061,159.967814 C62.8519136,154.742825 66.3437276,152.203065 70.3867058,149.26141 C72.0726635,148.034948 73.8117455,146.767294 75.5877194,145.25509 C78.5899784,151.443808 82.5676581,157.399851 86.6342472,163.488374 C87.6830826,165.058097 88.7673342,166.681629 89.8298196,168.301821 C91.2516316,170.473457 92.7258301,172.330778 94.1517002,174.127239 C97.2598389,178.044126 99.9440902,181.427009 101.644805,187.322935 C102.000811,188.557933 102.967009,189.519435 104.198828,189.86418 C104.524952,189.955469 104.857347,190 105.187529,190 C106.103185,190 107.000026,189.656739 107.690642,189.01549 C112.184807,184.841436 116.225572,183.332572 120.904935,181.585095 C123.040973,180.787616 125.249688,179.962676 127.571293,178.847913 L128.835946,178.238207 C130.676111,177.359088 131.459325,175.145147 130.584988,173.294135 C129.71102,171.443494 127.510421,170.655293 125.669887,171.534783 C125.451487,171.63906 125.230505,171.745935 125.009154,171.853181 L124.397856,172.147829 C122.371017,173.121206 120.411691,173.853001 118.337262,174.627472 C114.647707,176.005341 110.865186,177.41735 106.877545,180.180137 C104.883172,175.75374 102.36973,172.586832 99.9186348,169.497483 C98.5351903,167.754459 97.2288498,166.107919 95.9907591,164.217943 C94.9098278,162.569176 93.8170911,160.932285 92.7594017,159.349202 C82.9594496,144.676927 74.4957205,132.005215 79.0647766,115.447416 L84.5513331,95.5931982 L100.388268,100.016998 C100.424422,100.02776 100.459469,100.040748 100.495992,100.051138 C100.514807,100.056334 100.533622,100.057818 100.552437,100.062642 L116.994029,104.65566 C117.027601,104.666422 117.06191,104.674586 117.095482,104.683863 L153.25245,114.784273 C153.312584,114.804312 153.371242,114.826948 153.43322,114.84439 C153.514013,114.866655 153.594807,114.883355 153.6756,114.902651 L169.375666,119.2886 L163.896857,139.146899 C162.047837,145.832511 158.752288,151.111309 153.525081,155.759249 C151.998496,157.116336 151.854987,159.461644 153.204491,160.997226 C153.933843,161.82699 154.949106,162.250408 155.969904,162.250408 C156.837969,162.250408 157.710093,161.943885 158.411776,161.319706 C164.668634,155.75628 168.78761,149.154164 171.005548,141.133731 L177.075365,119.132741 C177.713225,118.900807 178.338542,118.619148 178.941724,118.276258 C181.749194,116.680929 183.769761,114.089216 184.630447,110.977601 C184.630816,110.976859 184.630816,110.976116 184.631185,110.975374 C190.154634,90.9567622 178.461761,70.1495776 158.565246,64.5935732 L158.565246,64.5935732 Z M103.845035,53.8385558 C100.243283,54.6423433 96.7359746,55.9905242 93.4249307,57.87345 C93.129058,58.0415552 92.8368746,58.2141134 92.5469046,58.3892693 C91.8090675,50.8037573 89.6018279,43.7563301 86.1439544,38.1268492 C85.4721538,37.0332382 84.7638302,36.0131035 84.0248863,35.0638476 C93.0903216,37.7861859 100.567563,44.745664 103.845035,53.8385558 L103.845035,53.8385558 Z M68.2724337,33.8106665 C77.5544241,33.8106665 85.3980012,47.5860099 85.4433781,63.9241214 C83.9370837,65.4192551 82.5654446,67.0364784 81.3387905,68.7602054 L71.875661,68.7602054 C73.4369243,60.2161602 72.0630717,46.5317346 69.7964362,38.3803058 C69.3212691,36.6721647 68.8033074,35.1521677 68.2414445,33.8106665 L68.2724337,33.8106665 Z M59.6153912,8.82571692 C61.0903276,7.12128676 63.6668546,6.94019338 65.3638799,8.42493648 C66.1814034,9.13854832 66.6739096,10.1356752 66.7510136,11.2329972 C66.8277487,12.3314325 66.4787517,13.3901608 65.7741173,14.2073076 C62.0052455,18.5561465 60.2705906,22.089323 60.0130854,26.3891776 L51.8610925,26.3891776 C52.0750652,20.022335 54.4077372,14.8544938 59.6153912,8.82571692 Z M49.4952179,43.7663496 C50.8273827,37.3794679 52.3941798,34.6530476 53.1759182,33.8106665 L59.8223545,33.8106665 C60.6022483,34.6493367 62.1664629,37.3635109 63.4993656,43.7236739 C65.7128768,54.2864651 65.4181109,64.7579674 64.3873525,68.7602054 L48.6197742,68.7602054 C47.5919672,64.7646471 47.2949877,54.313926 49.4952179,43.7663496 Z M44.7332174,33.8106665 L44.7586728,33.8106665 C44.1975477,35.1521677 43.679955,36.6717936 43.2055257,38.3795636 C40.9407348,46.5321057 39.5690957,60.2165313 41.12999,68.7602054 L29.1316524,68.7602054 C28.6472624,68.479288 27.5600594,66.7989789 27.5600594,64.0662501 C27.5600594,47.6661659 35.4242959,33.8106665 44.7332174,33.8106665 L44.7332174,33.8106665 Z M29.0028998,35.0352734 C28.2558398,35.9926934 27.5401378,37.0224765 26.8616966,38.1268492 C22.5538349,45.1397648 20.1816887,54.3517775 20.1816887,64.0662501 C20.1816887,65.7395084 20.4185344,67.3229622 20.8486934,68.7602054 L12.0437146,68.7602054 C11.403272,68.7602054 10.7930808,68.6292096 10.2371205,68.3935655 C10.2312178,68.3909679 10.2256841,68.3887413 10.2197814,68.3861437 C8.55079389,67.6703053 7.37763293,66.0033555 7.37763293,64.0662501 C7.37763293,50.3350668 16.5212789,38.7187426 29.0028998,35.0352734 Z M71.9542407,113.460584 C69.4478081,122.543456 70.1398993,130.539026 72.6197697,138.027683 C72.1619418,138.427721 71.7015315,138.823677 71.2459171,139.2252 C69.5514742,140.709201 67.8570314,141.941972 66.0622427,143.247477 C62.8744176,145.566808 59.6057994,147.944772 56.4998742,151.67537 C53.3965314,147.943659 50.1271753,145.564953 46.9386124,143.244879 C45.1460372,141.940488 43.4523322,140.708459 41.7619475,139.227798 C40.274099,137.922293 38.7770276,136.632002 37.3297602,135.384387 C23.9963063,123.889782 12.4808831,113.962673 12.4808831,96.7918286 L12.4808831,76.1824366 L46.2671807,76.1824366 C46.2693942,76.1824366 46.2716077,76.1824366 46.2738212,76.1824366 C46.2767726,76.1824366 46.2797239,76.1824366 46.2826753,76.1824366 L66.7237136,76.1824366 C66.726665,76.1824366 66.7296163,76.1824366 66.7325677,76.1824366 C66.7347812,76.1824366 66.7369947,76.1824366 66.7392082,76.1824366 L77.2401055,76.1824366 C76.6557385,77.5992696 76.1540093,79.0602628 75.738976,80.5605918 C74.6580447,84.4908378 75.6452707,88.5149703 78.0332804,91.4614487 L71.9542407,113.460584 Z M95.1909438,85.9826316 C94.7441834,87.5972573 94.5505012,89.1896174 94.5822282,90.692544 L86.1089072,88.3253418 C83.6260854,87.6302846 82.1644302,85.0341179 82.848774,82.5437128 C83.637153,79.6933474 84.8210126,77.0185091 86.3475975,74.5748617 C86.3970326,74.5032407 86.4416717,74.4282799 86.4859419,74.3529481 C87.8738135,72.174261 89.5431699,70.1885424 91.4523233,68.4303038 C91.4722449,68.4128624 91.4917976,68.3946788 91.5113503,68.3768664 C93.1832891,66.8449944 95.0348912,65.4841964 97.0561959,64.3349214 C100.699635,62.2631092 104.635996,60.997682 108.657577,60.5579368 C108.818795,60.5527415 108.981488,60.534558 109.14455,60.5074682 C109.898619,60.4377027 110.654902,60.3987379 111.41303,60.387234 C110.437978,61.1086388 109.474363,61.9083442 108.526611,62.7896901 C102.50955,68.3861437 97.7733735,76.6236661 95.1909438,85.9826316 L95.1909438,85.9826316 Z M114.125319,96.1520643 L102.559723,92.9209575 C102.166824,92.5116419 101.571021,90.6031101 102.299635,87.9698347 C104.521263,79.9193431 108.511854,72.9119939 113.535418,68.2384487 C118.049874,64.0391603 122.762071,62.3351012 126.812427,63.423517 L126.921627,63.4543177 C126.024417,64.5950576 125.122043,65.9191174 124.210814,67.4357745 C119.858682,74.6813654 114.895252,87.4978044 114.125319,96.1520643 L114.125319,96.1520643 Z M142.333568,78.1128624 C141.642584,88.8612001 138.57724,98.8424885 136.527159,102.409806 L121.340997,98.1674703 C121.415887,94.0405451 123.907563,83.901171 128.828198,74.3369911 C131.813118,68.534952 134.05024,66.324351 135.030088,65.7198405 L141.444474,67.5122197 C141.973504,68.5449715 142.752291,71.6024067 142.333568,78.1128624 L142.333568,78.1128624 Z M136.145697,58.3287812 C136.066011,58.3028046 135.984111,58.2816523 135.90258,58.2608711 L135.743207,58.21634 C137.636866,52.1385788 141.256326,47.7897399 147.882841,43.3859793 C148.786322,42.7836953 149.874632,42.5725434 150.948185,42.7926015 C152.016573,43.0115464 152.932229,43.6305295 153.529508,44.5411918 C154.128632,45.4503696 154.337808,46.545094 154.118671,47.6234902 C153.900271,48.6978045 153.28307,49.6184862 152.373686,50.2203991 C147.592502,53.4025216 144.981665,56.3382383 143.591211,60.4091285 L136.145697,58.3287812 Z M158.071264,103.557967 C157.345232,106.175657 155.866238,107.500459 155.313229,107.657803 L143.745419,104.426325 C147.516136,96.6226102 149.836264,83.0825398 149.829255,74.6231038 C149.827779,72.8396308 149.733705,71.2276028 149.549615,69.7770003 L149.700134,69.8193049 C158.572993,72.4399636 162.407901,87.8340146 158.071264,103.557967 Z M177.519912,108.990027 C177.187147,110.190884 176.402826,111.193577 175.311565,111.813673 C174.221411,112.433399 172.965981,112.591113 171.771792,112.255274 L163.286297,109.884732 C164.083161,108.616707 164.732457,107.156456 165.178849,105.546655 C167.761647,96.1821228 167.926185,86.6658139 165.642948,78.750029 C165.283253,77.5031566 164.86785,76.3186277 164.403013,75.1949581 C175.451016,82.1021121 181.172205,95.7572213 177.519912,108.990027 Z" id="Shape"></path>
                <path d="M141.495107,164 C139.565109,164 138,165.56695 138,167.5 C138,169.43305 139.564759,171 141.495107,171 L141.515029,171 C143.445027,171 145,169.43305 145,167.5 C145,165.56695 143.425105,164 141.495107,164 Z" id="Path"></path>
            </g>
        </g>
    </g>
</svg>