<?xml version="1.0" encoding="UTF-8"?>
<svg width="245px" height="209px" viewBox="0 0 245 209" version="1.1" xmlns="http://www.w3.org/2000/svg" xmlns:xlink="http://www.w3.org/1999/xlink">
    <!-- Generator: Sketch 58 (84663) - https://sketch.com -->
    <title>5</title>
    <desc>Created with Sketch.</desc>
    <g id="Page-1" stroke="none" stroke-width="1" fill="none" fill-rule="evenodd">
        <g id="5" transform="translate(-6.000000, -6.000000)">
            <path d="M87.7893997,212.665648 C143.560932,212.665648 232.14934,184.147654 232.14934,128.409129 C232.14934,72.670605 171.625356,17.3908926 115.853824,17.3908926 C60.0822912,17.3908926 15.7822759,57.6696347 15.7822759,113.408159 C15.7822759,169.146683 32.0178671,212.665648 87.7893997,212.665648 Z" id="Oval" fill="#F6F8F0" transform="translate(123.965808, 115.028270) rotate(-170.000000) translate(-123.965808, -115.028270) "></path>
            <path d="M34.6567252,194.181895 C38.9884947,194.181895 43,190.553211 43,186.330595 C43,182.10798 38.8101356,179 34.4783661,179 C30.1465966,179 27,182.803611 27,187.026227 C27,191.248842 30.3249557,194.181895 34.6567252,194.181895 Z" id="Oval-Copy" fill="#F6F8F0" transform="translate(35.000000, 186.590948) rotate(-280.000000) translate(-35.000000, -186.590948) "></path>
            <path d="M21.3563598,38.8699536 C29.4784276,38.8699536 37,32.0964092 37,24.2141936 C37,16.331978 32.3683522,6 24.2462843,6 C16.1242165,6 7,17.6304897 7,25.5127053 C7,33.3949208 13.234292,38.8699536 21.3563598,38.8699536 Z" id="Oval-Copy-3" fill="#F6F8F0" transform="translate(22.000000, 22.434977) rotate(-145.000000) translate(-22.000000, -22.434977) "></path>
            <path d="M238.527997,201 C244.48418,201 250,195.919842 250,190.00818 C250,184.096518 248.59968,180 242.643497,180 C236.687313,180 228,185.070402 228,190.982064 C228,196.893725 232.571814,201 238.527997,201 Z" id="Oval-Copy-2" fill="#F6F8F0" transform="translate(239.000000, 190.500000) rotate(-280.000000) translate(-239.000000, -190.500000) "></path>
            <g id="004-lemon-juice" transform="translate(74.000000, 7.000000)" fill="#A9C623" fill-rule="nonzero">
                <path d="M159.23542,12.2090082 L133.065488,12.2090082 C132.432994,8.77804449 131.23748,5.7025502 129.087549,3.44497743 C126.911135,1.15903547 124.056483,0 120.603731,0 L95.9017083,0 C94.0021613,0 92.4620252,1.5302276 92.4620252,3.41831722 C92.4620252,5.30640685 94.0021613,6.83663445 95.9017083,6.83663445 L120.603731,6.83663445 C122.61368,6.83663445 123.556747,7.58277848 124.090877,8.14366825 C127.449391,11.6710189 126.896346,21.6303157 126.529712,28.2205141 C126.417246,30.2473735 126.310626,32.1621234 126.310626,33.7566089 C126.310626,34.5707706 126.30925,35.3476765 126.308219,36.0907443 C126.302028,39.9520312 126.298588,42.9728378 126.473651,45.5855383 C113.404506,49.1002424 100.063997,48.8456032 87.7215839,44.8209372 C74.8113363,40.6045227 60.941513,40.141387 47.3093481,43.425036 C47.2718593,39.5220498 46.1348137,35.5308799 43.9044022,31.0174434 C41.1095952,25.370948 37.0649322,19.6745501 31.881848,14.0854767 C29.5640773,11.5879621 29.1750881,9.7080756 29.5836816,8.78112067 C30.1043975,7.59986836 32.1896689,6.83663445 34.8953971,6.83663445 L65.042925,6.83663445 C66.9424721,6.83663445 68.4826082,5.30640685 68.4826082,3.41831722 C68.4826082,1.5302276 66.9424721,0 65.043269,0 L34.895741,0 C29.2070739,0 24.9742791,2.20049258 23.283156,6.03751179 C21.5992556,9.85709933 22.8900396,14.4792275 26.8242997,18.719226 C31.559238,23.8246559 35.229013,28.9775957 37.7311323,34.0327813 C38.9438433,36.4868877 40.0031597,39.0855744 40.3429665,41.8175621 C40.6394375,44.2026254 40.2989429,46.5808527 39.4900103,48.8374001 C38.9280223,50.4052254 38.1768706,51.901615 37.3503974,53.3467351 C28.9989939,67.960289 23.9720557,80.2468852 21.6288339,91.8068199 C21.5015783,91.855697 21.3719152,91.8994471 21.2453475,91.9496913 C16.3511678,89.2330844 10.0138414,90.0393848 5.71913849,94.1737679 C1.4426641,98.3129362 0.449038996,104.587655 3.03920537,109.536542 C-0.092656932,116.714974 -0.836242072,125.217872 0.958405135,133.711882 C2.93602519,143.071666 7.74456536,151.876371 14.8643415,159.175116 C21.9889327,166.473177 30.6949321,171.516741 40.0420243,173.760642 C43.494433,174.589501 46.9602551,175 50.3504118,175 C55.2886151,175 60.0658572,174.128416 64.4004565,172.408491 C69.2960119,175.135352 75.635058,174.329393 79.9270095,170.186123 L79.9266655,170.186123 C83.2077951,167.019369 84.5597994,162.598902 83.8519834,158.478532 L117.09698,158.478532 C118.153545,158.478532 119.113465,158.486735 119.989808,158.493913 C120.70863,158.500065 121.384804,158.505534 122.023834,158.505534 C125.640987,158.505534 128.079134,158.323356 130.419605,156.992055 C133.129804,155.450206 134.988079,152.738384 138.039461,148.077291 C150.068206,129.698837 155.475879,112.181371 154.111837,96.0116133 C154.054056,95.3252838 153.980454,94.6485247 153.89963,93.9765507 C165.43139,88.8164332 173,77.3733933 173,64.6653607 L173,25.9079119 C173,18.3541862 166.82501,12.2090082 159.23542,12.2090082 Z M147.51656,73.2027797 C145.270671,68.6954955 142.798474,64.8646286 140.64648,61.7655503 C133.163853,50.9910664 133.166261,49.5821769 133.187585,36.10134 C133.188617,35.3548542 133.189992,34.5741886 133.189992,33.7566089 C133.189992,33.6438157 133.191712,33.5238448 133.193088,33.4055828 L151.685383,33.4055828 L151.685383,64.6663861 C151.685039,67.9958359 150.090217,71.1386643 147.51656,73.2027797 L147.51656,73.2027797 Z M75.1342902,165.282696 C75.1339463,165.282696 75.1339463,165.282696 75.1342902,165.282696 C72.8006986,167.5348 69.2795031,167.795933 66.9445357,165.888361 C65.9192687,165.051641 64.501573,164.87459 63.299524,165.435138 C50.0556604,171.613128 32.168345,167.081918 19.8032326,154.415927 C7.43949597,141.742074 3.41650088,123.822654 10.0200322,110.838449 C10.6167575,109.664716 10.4833112,108.254459 9.67609827,107.211977 C7.8281413,104.825205 8.18995979,101.325198 10.5122016,99.0778791 C11.8016099,97.8368122 13.4524927,97.2017523 15.0669186,97.2017523 C16.3769629,97.2017523 17.6625879,97.6201125 18.7102106,98.4728974 C19.7354776,99.307567 21.1514536,99.4822256 22.3521269,98.9223612 C23.4207296,98.4233368 24.52235,98.0019004 25.6459821,97.641304 C25.7106417,97.6214797 25.7756452,97.6019973 25.838929,97.5784132 C38.607132,93.5797238 54.5350558,98.3539519 65.8477304,109.942598 C78.2176579,122.613716 82.2444362,140.533136 75.640217,153.519392 C75.0514022,154.678085 75.1869121,156.117053 75.984151,157.145864 C77.831764,159.532978 77.4665062,163.031275 75.1342902,165.282696 L75.1342902,165.282696 Z M132.273409,144.350331 C129.864839,148.02944 128.308194,150.31709 127.002621,151.059817 C125.909599,151.681546 124.082622,151.693851 120.048277,151.658646 C119.154393,151.651126 118.175213,151.642923 117.097324,151.642923 L83.8165582,151.642923 C85.9073325,145.193887 86.2371651,137.917359 84.6994366,130.645275 C82.7204408,121.284465 77.9088052,112.479761 70.7849019,105.182383 C63.6606546,97.884322 54.9532795,92.8410993 45.6034358,90.5968566 C40.017605,89.2559849 34.3970368,89.0167266 29.1210904,89.8336227 C31.5716196,79.94166 36.160386,69.272108 43.3314083,56.7240366 C44.4994079,54.6814545 45.4063617,52.7304741 46.0598361,50.8218766 C59.364232,47.0422794 72.9888304,47.204975 85.5754363,51.3161159 C92.8661476,53.6936596 100.459865,54.8817478 108.148164,54.8817478 C114.620312,54.8817478 121.15884,54.0354571 127.634084,52.3503952 C128.792453,56.0992307 130.95339,59.8443063 134.98464,65.649054 C146.681144,82.4911279 156.942757,106.657581 132.273409,144.350331 L132.273409,144.350331 Z M166.120634,64.6663861 C166.120634,74.0894025 160.83265,82.6322903 152.627418,86.9898672 C151.992516,84.3959656 151.209035,81.9333143 150.3265,79.6077238 C155.358941,76.3503933 158.564061,70.7001381 158.564061,64.6667279 L158.564061,29.9872656 C158.564061,28.0995178 157.023925,26.5689484 155.124378,26.5689484 L133.508131,26.5689484 C133.634699,24.1278303 133.734784,21.5718683 133.685945,19.0453009 L159.235077,19.0453009 C163.031763,19.0453009 166.120634,22.1238713 166.120634,25.9079119 L166.120634,64.6663861 Z" id="Shape"></path>
                <path d="M91.1299688,95.9138034 C97.0394806,95.3946057 102.395934,92.5841511 106.212107,88.00028 C107.407146,86.5651903 107.221895,84.42596 105.798155,83.2209462 L76.942088,58.7955777 C76.258006,58.2166553 75.3741896,57.933981 74.4836368,58.0130483 C73.5934207,58.0910977 72.7709056,58.5220657 72.1962902,59.2112752 C64.3163797,68.6630492 65.5366796,82.8137323 74.9184717,90.7564394 C78.9596415,94.1736427 83.9556967,96 89.1646224,96 C89.8167065,96 90.4728324,95.9714921 91.1299688,95.9138034 Z M79.250991,85.5590326 C73.5998203,80.7742693 72.1979743,72.7558883 75.470857,66.4148891 L98.6090631,86.000181 C96.2951078,87.7946369 93.5207191,88.890721 90.5445751,89.1520166 C86.4319995,89.5137583 82.418449,88.2374821 79.250991,85.5590326 L79.250991,85.5590326 Z" id="Shape"></path>
                <path d="M125.515724,100.876134 C124.838003,100.271569 123.945268,99.9565287 123.033269,100.004839 C122.12127,100.051449 121.26569,100.454606 120.654708,101.125512 L94.8841019,129.423352 C93.6129446,130.81892 93.7261275,132.968747 95.1359252,134.226868 C99.3360765,137.974011 104.678033,140 110.292799,140 C110.693239,140 111.095743,139.989794 111.498592,139.96904 C117.54992,139.657402 123.116178,137.032973 127.169432,132.580561 C135.549438,123.388253 134.807729,109.165847 125.515724,100.876134 L125.515724,100.876134 Z M122.057626,128.025403 C119.23287,131.128177 115.356098,132.9565 111.141154,133.173218 C108.089689,133.329377 105.136613,132.631933 102.547168,131.176828 L123.210784,108.487115 C127.405775,114.328971 127.107165,122.48634 122.057626,128.025403 Z" id="Shape"></path>
                <path d="M27.8964759,106.859638 C26.7152626,108.019852 26.6993691,109.917187 27.8604907,111.097478 L27.8688873,111.106167 C28.4548459,111.701856 29.2276275,112 30.0013087,112 C30.760296,112 31.5207827,111.712943 32.1055418,111.138229 C33.2867551,109.978014 33.2987502,108.076485 32.1373287,106.896194 C30.9768068,105.715903 29.078289,105.699123 27.8964759,106.859638 Z" id="Path"></path>
                <path d="M37.9979017,118 C36.3423261,118 35,119.342966 35,121 C35,122.657034 36.3423261,124 37.9979017,124 L38.006295,124 C39.6618705,124 41,122.657034 41,121 C41,119.342966 39.6534772,118 37.9979017,118 Z" id="Path"></path>
                <path d="M21.9980515,117 C20.3423932,117 19,118.342966 19,120 C19,121.657034 20.3423932,123 21.9980515,123 L22.0064452,123 C23.6621034,123 25,121.657034 25,120 C25,118.342966 23.6537097,117 21.9980515,117 L21.9980515,117 Z" id="Path"></path>
                <path d="M45.9980515,107 C44.3423932,107 43,108.342966 43,110 C43,111.657034 44.3423932,113 45.9980515,113 L46.0064452,113 C47.6621034,113 49,111.657034 49,110 C49,108.342966 47.6537097,107 45.9980515,107 L45.9980515,107 Z" id="Path"></path>
                <path d="M53,72 C51.3432657,72 50,73.3410884 50,74.9958063 L50,75.0128807 C50,76.6672991 51.3432657,78 53,78 C54.6567343,78 56,76.6502247 56,74.9958063 C55.9997,73.3413879 54.6564344,72 53,72 Z" id="Path"></path>
                <path d="M111,73 C112.656734,73 114,71.6502247 114,69.9958063 C114,68.3413879 112.656734,67 111,67 C109.343266,67 108,68.3410884 108,69.9958063 L108,70.0128807 C108,71.6672991 109.343266,73 111,73 Z" id="Path"></path>
                <path d="M96,109.995806 C96,108.341388 94.6567343,107 93,107 C91.3432657,107 90,108.341088 90,109.995806 L90,110.012881 C90,111.667299 91.3432657,113 93,113 C94.6567343,113 96,111.650225 96,109.995806 Z" id="Path"></path>
                <path d="M129,91 C130.656734,91 132,89.6502247 132,87.9958063 C132,86.3413879 130.656734,85 129,85 C127.343266,85 126,86.3410884 126,87.9958063 L126,88.0128807 C126.0003,89.6672991 127.343566,91 129,91 Z" id="Path"></path>
                <path d="M80.4951073,6 L80.5150275,6 C82.4451822,6 84,4.65696715 84,2.99985001 C84,1.34273286 82.4252621,0 80.4951073,0 C78.5649526,0 77,1.34303285 77,3.00014999 C77,4.65726714 78.5649526,6 80.4951073,6 Z" id="Path"></path>
            </g>
        </g>
    </g>
</svg>